<svg width="64" height="64" viewBox="0 0 64 64" fill="none" xmlns="http://www.w3.org/2000/svg">
<path d="M32 12.1C31.6332 11.7092 31.1916 11.396 30.7015 11.1792C30.2113 10.9623 29.6826 10.8462 29.1467 10.8377C28.6107 10.8291 28.0786 10.9284 27.5818 11.1296C27.085 11.3308 26.6337 11.6297 26.2547 12.0087C25.8757 12.3877 25.5767 12.839 25.3756 13.3358C25.1744 13.8326 25.0751 14.3648 25.0836 14.9007C25.0921 15.4366 25.2083 15.9653 25.4251 16.4555C25.642 16.9457 25.9551 17.3872 26.346 17.754C26.372 17.78 26.4 17.805 26.429 17.829L31.379 21.779C31.5562 21.9205 31.7762 21.9976 32.003 21.9976C32.2297 21.9976 32.4498 21.9205 32.627 21.779L37.577 17.829C37.606 17.8056 37.6337 17.7805 37.66 17.754C38.0312 17.3824 38.3256 16.9412 38.5264 16.4558C38.7272 15.9704 38.8304 15.4502 38.8301 14.9249C38.8298 14.3996 38.7261 13.8795 38.5248 13.3943C38.3235 12.9091 38.0286 12.4682 37.657 12.097C37.2853 11.7258 36.8442 11.4313 36.3588 11.2306C35.8734 11.0298 35.3531 10.9266 34.8278 10.9269C34.3025 10.9272 33.7824 11.0309 33.2972 11.2322C32.812 11.4335 32.3712 11.7284 32 12.1V12.1ZM36.275 16.3L32 19.721L27.722 16.307C27.3787 15.9227 27.197 15.4207 27.2147 14.9058C27.2324 14.3908 27.4483 13.9025 27.8172 13.5427C28.1861 13.183 28.6796 12.9795 29.1949 12.9747C29.7102 12.9699 30.2074 13.1642 30.583 13.517L31.293 14.227C31.4805 14.4145 31.7348 14.5198 32 14.5198C32.2651 14.5198 32.5194 14.4145 32.707 14.227L33.417 13.517C33.7925 13.1642 34.2898 12.9699 34.805 12.9747C35.3203 12.9795 35.8138 13.183 36.1828 13.5427C36.5517 13.9025 36.7675 14.3908 36.7852 14.9058C36.803 15.4207 36.6213 15.9227 36.278 16.307L36.275 16.3Z" fill="#ffffff" id="id_101"></path>
<path d="M47 15C47.3961 15.0001 47.7883 14.9215 48.1538 14.7687C48.5193 14.6159 48.8508 14.392 49.129 14.11L53.029 15.71C53.0144 15.8061 53.0047 15.9029 53 16C52.9986 16.6963 53.2389 17.3715 53.68 17.9102C54.1211 18.449 54.7355 18.818 55.4183 18.9541C56.1012 19.0902 56.8101 18.9851 57.4241 18.6566C58.038 18.3281 58.5189 17.7967 58.7846 17.1531C59.0502 16.5095 59.0842 15.7936 58.8808 15.1277C58.6773 14.4618 58.249 13.8872 57.6689 13.502C57.0889 13.1168 56.3931 12.9449 55.7005 13.0157C55.0078 13.0864 54.3611 13.3955 53.871 13.89L49.971 12.29C49.9856 12.1939 49.9953 12.0971 50 12C49.995 11.9019 49.985 11.8041 49.97 11.707L53.87 10.107C54.3593 10.6003 55.0047 10.9085 55.6959 10.9789C56.3872 11.0494 57.0815 10.8777 57.6602 10.4931C58.2389 10.1086 58.6662 9.53512 58.8692 8.87058C59.0721 8.20604 59.0381 7.49167 58.7729 6.84943C58.5077 6.20719 58.0278 5.67691 57.4151 5.34915C56.8025 5.02138 56.095 4.91644 55.4136 5.05226C54.7322 5.18807 54.119 5.55621 53.6788 6.09382C53.2386 6.63143 52.9987 7.30517 53 8C53.0049 8.09812 53.0149 8.19592 53.03 8.293L49.13 9.893C48.7827 9.54103 48.3538 9.28036 47.8815 9.13415C47.4092 8.98795 46.908 8.96076 46.4227 9.055C45.9373 9.14924 45.4827 9.36198 45.0994 9.67431C44.7161 9.98663 44.4159 10.3889 44.2256 10.8452C44.0353 11.3015 43.9607 11.7978 44.0085 12.29C44.0563 12.7821 44.225 13.2548 44.4995 13.666C44.7741 14.0772 45.1461 14.4141 45.5823 14.6469C46.0185 14.8796 46.5055 15.0009 47 15ZM56 15C56.1978 15 56.3911 15.0586 56.5556 15.1685C56.72 15.2784 56.8482 15.4346 56.9239 15.6173C56.9996 15.8 57.0194 16.0011 56.9808 16.1951C56.9422 16.3891 56.8469 16.5673 56.7071 16.7071C56.5672 16.847 56.3891 16.9422 56.1951 16.9808C56.0011 17.0194 55.8 16.9996 55.6173 16.9239C55.4346 16.8482 55.2784 16.72 55.1685 16.5556C55.0586 16.3911 55 16.1978 55 16C55 15.7348 55.1053 15.4804 55.2929 15.2929C55.4804 15.1054 55.7348 15 56 15ZM56 7C56.1978 7 56.3911 7.05865 56.5556 7.16853C56.72 7.27841 56.8482 7.43459 56.9239 7.61732C56.9996 7.80004 57.0194 8.00111 56.9808 8.19509C56.9422 8.38907 56.8469 8.56725 56.7071 8.70711C56.5672 8.84696 56.3891 8.9422 56.1951 8.98078C56.0011 9.01937 55.8 8.99957 55.6173 8.92388C55.4346 8.84819 55.2784 8.72002 55.1685 8.55557C55.0586 8.39112 55 8.19778 55 8C55 7.73478 55.1053 7.48043 55.2929 7.29289C55.4804 7.10536 55.7348 7 56 7V7ZM47 11C47.1978 11 47.3911 11.0586 47.5556 11.1685C47.72 11.2784 47.8482 11.4346 47.9239 11.6173C47.9996 11.8 48.0194 12.0011 47.9808 12.1951C47.9422 12.3891 47.8469 12.5673 47.7071 12.7071C47.5672 12.847 47.3891 12.9422 47.1951 12.9808C47.0011 13.0194 46.8 12.9996 46.6173 12.9239C46.4346 12.8482 46.2784 12.72 46.1685 12.5556C46.0586 12.3911 46 12.1978 46 12C46 11.7348 46.1053 11.4804 46.2929 11.2929C46.4804 11.1054 46.7348 11 47 11Z" fill="#ffffff" id="id_102"></path>
<path d="M15 40C15.2652 40 15.5196 39.8946 15.7071 39.7071C15.8946 39.5196 16 39.2652 16 39V38C16 37.7348 15.8946 37.4804 15.7071 37.2929C15.5196 37.1054 15.2652 37 15 37C14.7348 37 14.4804 37.1054 14.2929 37.2929C14.1054 37.4804 14 37.7348 14 38V39C14 39.2652 14.1054 39.5196 14.2929 39.7071C14.4804 39.8946 14.7348 40 15 40Z" fill="#ffffff" id="id_103"></path>
<path d="M19 40C19.2652 40 19.5196 39.8946 19.7071 39.7071C19.8946 39.5196 20 39.2652 20 39V38C20 37.7348 19.8946 37.4804 19.7071 37.2929C19.5196 37.1054 19.2652 37 19 37C18.7348 37 18.4804 37.1054 18.2929 37.2929C18.1054 37.4804 18 37.7348 18 38V39C18 39.2652 18.1054 39.5196 18.2929 39.7071C18.4804 39.8946 18.7348 40 19 40Z" fill="#ffffff" id="id_104"></path>
<path d="M22 49H21V46.74C21.7848 46.1914 22.4487 45.4877 22.951 44.6724C23.4532 43.8572 23.783 42.9477 23.92 42H25C25.6067 42.0022 26.1997 41.8197 26.7001 41.4769C27.2006 41.134 27.585 40.6469 27.802 40.0804C28.0191 39.5139 28.0586 38.8948 27.9153 38.3052C27.7721 37.7157 27.4528 37.1837 27 36.78V32C27 30.6739 26.4732 29.4021 25.5355 28.4645C24.5979 27.5268 23.3261 27 22 27H21C20.405 27.0003 19.8236 27.1778 19.33 27.51C18.8933 26.7473 18.2629 26.1135 17.5025 25.6728C16.7422 25.232 15.8789 24.9999 15 25H14C12.1441 25.0021 10.3649 25.7403 9.05259 27.0526C7.7403 28.3649 7.00212 30.1441 7 32V36.78C6.54717 37.1837 6.22792 37.7157 6.08466 38.3052C5.94141 38.8948 5.98094 39.5139 6.19799 40.0804C6.41505 40.6469 6.79936 41.134 7.29985 41.4769C7.80035 41.8197 8.39333 42.0022 9 42H10.08C10.217 42.9477 10.5468 43.8572 11.049 44.6724C11.5513 45.4877 12.2152 46.1914 13 46.74V49H12C9.61419 49.0037 7.32715 49.9531 5.64013 51.6401C3.9531 53.3272 3.0037 55.6142 3 58V61C3 61.2652 3.10536 61.5196 3.29289 61.7071C3.48043 61.8946 3.73478 62 4 62H30C30.2652 62 30.5196 61.8946 30.7071 61.7071C30.8946 61.5196 31 61.2652 31 61V58C30.9963 55.6142 30.0469 53.3272 28.3599 51.6401C26.6728 49.9531 24.3858 49.0037 22 49ZM26 39C26 39.2652 25.8946 39.5196 25.7071 39.7071C25.5196 39.8946 25.2652 40 25 40H24V38H25C25.2652 38 25.5196 38.1054 25.7071 38.2929C25.8946 38.4804 26 38.7348 26 39ZM10 40H9C8.73478 40 8.48043 39.8946 8.29289 39.7071C8.10536 39.5196 8 39.2652 8 39C8 38.7348 8.10536 38.4804 8.29289 38.2929C8.48043 38.1054 8.73478 38 9 38H10V40ZM10 36H9V32C9 30.6739 9.52678 29.4021 10.4645 28.4645C11.4021 27.5268 12.6739 27 14 27H15C15.7949 27.0024 16.5566 27.3192 17.1187 27.8813C17.6808 28.4434 17.9976 29.2051 18 30C18 30.2652 18.1054 30.5196 18.2929 30.7071C18.4804 30.8946 18.7348 31 19 31C19.2652 31 19.5196 30.8946 19.7071 30.7071C19.8946 30.5196 20 30.2652 20 30C20 29.7348 20.1054 29.4804 20.2929 29.2929C20.4804 29.1054 20.7348 29 21 29H22C22.7949 29.0024 23.5566 29.3192 24.1187 29.8813C24.6808 30.4434 24.9976 31.2051 25 32V36H24C23.9976 35.2051 23.6808 34.4434 23.1187 33.8813C22.5566 33.3192 21.7949 33.0024 21 33H13C12.2051 33.0024 11.4434 33.3192 10.8813 33.8813C10.3192 34.4434 10.0024 35.2051 10 36V36ZM12 41V36C12 35.7348 12.1054 35.4804 12.2929 35.2929C12.4804 35.1054 12.7348 35 13 35H21C21.2652 35 21.5196 35.1054 21.7071 35.2929C21.8946 35.4804 22 35.7348 22 36V41C22 42.3261 21.4732 43.5979 20.5355 44.5355C19.5979 45.4732 18.3261 46 17 46C15.6739 46 14.4021 45.4732 13.4645 44.5355C12.5268 43.5979 12 42.3261 12 41V41ZM20.41 51H21V53.52L18.78 52.63L20.41 51ZM17 51.59L15 49.59V47.71C16.3053 48.0966 17.6947 48.0966 19 47.71V49.59L17 51.59ZM13 51H13.59L15.22 52.63L13 53.52V51ZM29 60H25V58C25 57.7348 24.8946 57.4804 24.7071 57.2929C24.5196 57.1054 24.2652 57 24 57C23.7348 57 23.4804 57.1054 23.2929 57.2929C23.1054 57.4804 23 57.7348 23 58V60H11V58C11 57.7348 10.8946 57.4804 10.7071 57.2929C10.5196 57.1054 10.2652 57 10 57C9.73478 57 9.48043 57.1054 9.29289 57.2929C9.10536 57.4804 9 57.7348 9 58V60H5V58C5.00197 56.3182 5.60941 54.6932 6.71118 53.4225C7.81295 52.1518 9.3354 51.3203 11 51.08V55C10.9998 55.1638 11.0397 55.3252 11.1165 55.4699C11.1932 55.6146 11.3043 55.7383 11.44 55.83C11.6061 55.94 11.8008 55.9991 12 56C12.1268 56.0019 12.2527 55.9781 12.37 55.93L17 54.08L21.63 55.93C21.7473 55.9781 21.8732 56.0019 22 56C22.1992 55.9991 22.3939 55.94 22.56 55.83C22.6957 55.7383 22.8068 55.6146 22.8835 55.4699C22.9603 55.3252 23.0002 55.1638 23 55V51.08C24.6646 51.3203 26.187 52.1518 27.2888 53.4225C28.3906 54.6932 28.998 56.3182 29 58V60Z" fill="#ffffff" id="id_105"></path>
<path d="M17 43.827C17.5027 43.828 18.0007 43.7295 18.4653 43.5373C18.9299 43.3451 19.3519 43.0629 19.707 42.707C19.8891 42.5184 19.9899 42.2658 19.9877 42.0036C19.9854 41.7414 19.8802 41.4906 19.6948 41.3052C19.5094 41.1198 19.2586 41.0146 18.9964 41.0124C18.7342 41.0101 18.4816 41.1109 18.293 41.293C17.9497 41.6354 17.4848 41.8276 17 41.8276C16.5152 41.8276 16.0502 41.6354 15.707 41.293C15.5184 41.1109 15.2658 41.0101 15.0036 41.0124C14.7414 41.0146 14.4906 41.1198 14.3052 41.3052C14.1198 41.4906 14.0146 41.7414 14.0123 42.0036C14.01 42.2658 14.1108 42.5184 14.293 42.707C14.6481 43.0629 15.0701 43.3451 15.5347 43.5373C15.9992 43.7295 16.4972 43.828 17 43.827V43.827Z" fill="#ffffff" id="id_106"></path>
<path d="M45 40C45.2652 40 45.5196 39.8946 45.7071 39.7071C45.8946 39.5196 46 39.2652 46 39V38C46 37.7348 45.8946 37.4804 45.7071 37.2929C45.5196 37.1054 45.2652 37 45 37C44.7348 37 44.4804 37.1054 44.2929 37.2929C44.1054 37.4804 44 37.7348 44 38V39C44 39.2652 44.1054 39.5196 44.2929 39.7071C44.4804 39.8946 44.7348 40 45 40Z" fill="#ffffff" id="id_107"></path>
<path d="M49 37C48.7348 37 48.4804 37.1054 48.2929 37.2929C48.1054 37.4804 48 37.7348 48 38V39C48 39.2652 48.1054 39.5196 48.2929 39.7071C48.4804 39.8946 48.7348 40 49 40C49.2652 40 49.5196 39.8946 49.7071 39.7071C49.8946 39.5196 50 39.2652 50 39V38C50 37.7348 49.8946 37.4804 49.7071 37.2929C49.5196 37.1054 49.2652 37 49 37Z" fill="#ffffff" id="id_108"></path>
<path d="M58 51.31V47.87C58.0029 47.4867 57.9301 47.1066 57.786 46.7514C57.6419 46.3962 57.4292 46.0729 57.16 45.8L56.88 45.49C56.7158 45.3243 56.6157 45.1058 56.5974 44.8733C56.5791 44.6408 56.6438 44.4093 56.78 44.22L57.09 43.77C57.6815 42.9298 57.9993 41.9275 58 40.9V32C57.9979 30.1441 57.2597 28.3649 55.9474 27.0526C54.6351 25.7403 52.8559 25.0021 51 25H49C48.1211 24.9999 47.2578 25.232 46.4975 25.6728C45.7371 26.1135 45.1067 26.7473 44.67 27.51C44.1772 27.1762 43.5952 26.9985 43 27H41C38.18 27 36 30.23 36 33V40.84C36.0018 41.3601 36.1071 41.8746 36.3097 42.3536C36.5123 42.8325 36.8081 43.2664 37.18 43.63C37.5427 43.994 37.7474 44.4862 37.75 45C37.7505 45.2571 37.6995 45.5117 37.5999 45.7488C37.5002 45.9858 37.3541 46.2005 37.17 46.38C36.8006 46.7449 36.507 47.1793 36.3062 47.6581C36.1054 48.1369 36.0014 48.6508 36 49.17V51.31C35.0562 52.1503 34.301 53.1809 33.784 54.3339C33.2669 55.4869 32.9997 56.7363 33 58V61C33 61.2652 33.1054 61.5196 33.2929 61.7071C33.4804 61.8946 33.7348 62 34 62H60C60.2652 62 60.5196 61.8946 60.7071 61.7071C60.8946 61.5196 61 61.2652 61 61V58C61.0003 56.7363 60.7331 55.4869 60.216 54.3339C59.699 53.1809 58.9438 52.1503 58 51.31V51.31ZM38 49.17C37.9985 48.9127 38.0491 48.6578 38.1488 48.4206C38.2485 48.1835 38.3951 47.9689 38.58 47.79C38.951 47.4263 39.2456 46.9922 39.4466 46.5131C39.6475 46.034 39.7506 45.5195 39.75 45C39.7454 43.9516 39.3245 42.9481 38.58 42.21C38.3979 42.031 38.253 41.8179 38.1535 41.5828C38.0539 41.3477 38.0018 41.0953 38 40.84V33C38 31.25 39.46 29 41 29H43C43.1335 28.9988 43.2657 29.0258 43.3881 29.0792C43.5104 29.1327 43.6201 29.2113 43.71 29.31C43.8036 29.3986 43.8777 29.5057 43.9276 29.6245C43.9776 29.7433 44.0022 29.8712 44 30C44 30.2652 44.1054 30.5196 44.2929 30.7071C44.4804 30.8946 44.7348 31 45 31C45.2652 31 45.5196 30.8946 45.7071 30.7071C45.8946 30.5196 46 30.2652 46 30C46.0024 29.2051 46.3192 28.4434 46.8813 27.8813C47.4434 27.3192 48.2051 27.0024 49 27H51C52.3261 27 53.5979 27.5268 54.5355 28.4645C55.4732 29.4021 56 30.6739 56 32V40.9C55.9956 41.5159 55.8038 42.1158 55.45 42.62L55.14 43.06C54.7369 43.6294 54.5452 44.3217 54.5982 45.0173C54.6511 45.7129 54.9453 46.3682 55.43 46.87L55.72 47.19C55.8094 47.2791 55.8802 47.3851 55.9283 47.5019C55.9764 47.6186 56.0007 47.7437 56 47.87V49.95C54.7583 49.3277 53.3889 49.0025 52 49C51.7348 49 51.4804 48.8946 51.2929 48.7071C51.1054 48.5196 51 48.2652 51 48V46.74C51.9248 46.095 52.6804 45.2365 53.2026 44.2372C53.7249 43.238 53.9984 42.1275 54 41V35C54 34.7348 53.8946 34.4804 53.7071 34.2929C53.5196 34.1054 53.2652 34 53 34H52.65C51.8637 34.003 51.1083 33.6937 50.55 33.14L49.68 32.29C49.4926 32.1037 49.2392 31.9992 48.975 31.9992C48.7108 31.9992 48.4574 32.1037 48.27 32.29L47.45 33.12C47.1712 33.4008 46.8393 33.6232 46.4735 33.7743C46.1078 33.9254 45.7157 34.0021 45.32 34H41C40.7348 34 40.4804 34.1054 40.2929 34.2929C40.1054 34.4804 40 34.7348 40 35V41C40.0016 42.1275 40.2751 43.238 40.7974 44.2372C41.3196 45.2365 42.0752 46.095 43 46.74V48C43 48.2652 42.8946 48.5196 42.7071 48.7071C42.5196 48.8946 42.2652 49 42 49C40.6111 49.0025 39.2417 49.3277 38 49.95V49.17ZM45 48V47.71C46.3053 48.0966 47.6947 48.0966 49 47.71V48C49.0024 48.7949 49.3192 49.5566 49.8813 50.1187C50.4434 50.6808 51.2051 50.9976 52 51C52.234 50.9981 52.4678 51.0114 52.7 51.04C52.057 51.9544 51.2035 52.7008 50.2114 53.216C49.2193 53.7312 48.1179 54.0001 47 54.0001C45.8821 54.0001 44.7807 53.7312 43.7886 53.216C42.7965 52.7008 41.943 51.9544 41.3 51.04C41.5322 51.0114 41.766 50.9981 42 51C42.7949 50.9976 43.5566 50.6808 44.1187 50.1187C44.6808 49.5566 44.9976 48.7949 45 48V48ZM42 41V36H45.32C45.9782 36.0029 46.6303 35.8744 47.2382 35.622C47.8461 35.3695 48.3975 34.9983 48.86 34.53L48.99 34.41L49.15 34.57C49.9237 35.3307 50.9242 35.8186 52 35.96V41C52 42.3261 51.4732 43.5979 50.5355 44.5355C49.5979 45.4732 48.3261 46 47 46C45.6739 46 44.4021 45.4732 43.4645 44.5355C42.5268 43.5979 42 42.3261 42 41V41ZM59 60H55.82C55.653 59.3749 55.3542 58.7927 54.9437 58.2925C54.5332 57.7924 54.0205 57.3858 53.44 57.1C53.3218 57.0422 53.1934 57.0083 53.0621 57.0001C52.9308 56.992 52.7992 57.0098 52.6747 57.0525C52.5503 57.0952 52.4355 57.162 52.3369 57.2491C52.2383 57.3362 52.1578 57.4418 52.1 57.56C52.0422 57.6782 52.0083 57.8066 52.0001 57.9379C51.992 58.0692 52.0098 58.2008 52.0525 58.3253C52.0952 58.4497 52.162 58.5645 52.2491 58.6631C52.3362 58.7617 52.4418 58.8422 52.56 58.9C53.0375 59.1393 53.4264 59.5246 53.67 60H40.33C40.5736 59.5246 40.9625 59.1393 41.44 58.9C41.5582 58.8422 41.6638 58.7617 41.7509 58.6631C41.838 58.5645 41.9048 58.4497 41.9475 58.3253C41.9902 58.2008 42.008 58.0692 41.9999 57.9379C41.9917 57.8066 41.9578 57.6782 41.9 57.56C41.8422 57.4418 41.7617 57.3362 41.6631 57.2491C41.5645 57.162 41.4497 57.0952 41.3253 57.0525C41.2008 57.0098 41.0692 56.992 40.9379 57.0001C40.8066 57.0083 40.6782 57.0422 40.56 57.1C39.9795 57.3858 39.4668 57.7924 39.0563 58.2925C38.6458 58.7927 38.347 59.3749 38.18 60H35V58C35.0018 56.6274 35.4065 55.2856 36.1637 54.1408C36.921 52.996 37.9976 52.0987 39.26 51.56C40.0502 52.9114 41.1805 54.0324 42.5384 54.8114C43.8963 55.5904 45.4345 56.0003 47 56.0003C48.5655 56.0003 50.1037 55.5904 51.4616 54.8114C52.8195 54.0324 53.9498 52.9114 54.74 51.56C56.0024 52.0987 57.079 52.996 57.8363 54.1408C58.5935 55.2856 58.9982 56.6274 59 58V60Z" fill="#ffffff" id="id_109"></path>
<path d="M48.293 41.293C47.9497 41.6354 47.4848 41.8276 47 41.8276C46.5152 41.8276 46.0502 41.6354 45.707 41.293C45.5184 41.1109 45.2658 41.0101 45.0036 41.0124C44.7414 41.0146 44.4906 41.1198 44.3052 41.3052C44.1198 41.4906 44.0146 41.7414 44.0123 42.0036C44.01 42.2658 44.1108 42.5184 44.293 42.707C45.0113 43.4243 45.9849 43.8272 47 43.8272C48.0151 43.8272 48.9887 43.4243 49.707 42.707C49.8891 42.5184 49.9899 42.2658 49.9877 42.0036C49.9854 41.7414 49.8802 41.4906 49.6948 41.3052C49.5094 41.1198 49.2586 41.0146 48.9964 41.0124C48.7342 41.0101 48.4816 41.1109 48.293 41.293Z" fill="#ffffff" id="id_110"></path>
<path d="M61 2H42C41.7348 2 41.4804 2.10536 41.2929 2.29289C41.1054 2.48043 41 2.73478 41 3V6H23V3C23 2.73478 22.8946 2.48043 22.7071 2.29289C22.5196 2.10536 22.2652 2 22 2H3C2.73478 2 2.48043 2.10536 2.29289 2.29289C2.10536 2.48043 2 2.73478 2 3V21C2 21.2652 2.10536 21.5196 2.29289 21.7071C2.48043 21.8946 2.73478 22 3 22H21V25C21 25.2652 21.1054 25.5196 21.2929 25.7071C21.4804 25.8946 21.7348 26 22 26H42C42.2652 26 42.5196 25.8946 42.7071 25.7071C42.8946 25.5196 43 25.2652 43 25V22H61C61.2652 22 61.5196 21.8946 61.7071 21.7071C61.8946 21.5196 62 21.2652 62 21V3C62 2.73478 61.8946 2.48043 61.7071 2.29289C61.5196 2.10536 61.2652 2 61 2V2ZM15 10H17.44C17.5919 9.99918 17.742 10.033 17.8789 10.0988C18.0157 10.1647 18.1358 10.2608 18.23 10.38C18.3221 10.5009 18.386 10.6409 18.4171 10.7897C18.4483 10.9384 18.4458 11.0923 18.41 11.24L17.41 15.24C17.3564 15.4568 17.2318 15.6494 17.056 15.7872C16.8802 15.9249 16.6633 15.9998 16.44 16H8V11C9.32608 11 10.5979 10.4732 11.5355 9.53553C12.4732 8.59785 13 7.32608 13 6C13.2652 6 13.5196 6.10536 13.7071 6.29289C13.8946 6.48043 14 6.73478 14 7V9C14 9.26522 14.1054 9.51957 14.2929 9.70711C14.4804 9.89464 14.7348 10 15 10ZM4 4H12C11.7348 4 11.4804 4.10536 11.2929 4.29289C11.1054 4.48043 11 4.73478 11 5V6C10.9976 6.79492 10.6808 7.5566 10.1187 8.1187C9.5566 8.68079 8.79492 8.99763 8 9C8 8.73478 7.89464 8.48043 7.70711 8.29289C7.51957 8.10536 7.26522 8 7 8H4V4ZM4 10H6V17H4V10ZM21 20H4V19H7C7.26522 19 7.51957 18.8946 7.70711 18.7071C7.89464 18.5196 8 18.2652 8 18H16.44C17.1087 18 17.7582 17.7767 18.2854 17.3654C18.8126 16.9542 19.1873 16.3786 19.35 15.73L20.35 11.73C20.461 11.2876 20.4696 10.8257 20.3753 10.3794C20.2809 9.93317 20.0861 9.5143 19.8055 9.15467C19.5249 8.79504 19.166 8.50412 18.7561 8.30404C18.3463 8.10396 17.8961 7.99997 17.44 8H16V7C15.9976 6.20508 15.6808 5.4434 15.1187 4.8813C14.5566 4.31921 13.7949 4.00237 13 4H21V20ZM41 24H23V8H41V24ZM60 20H43V4H60V20Z" fill="#ffffff" id="id_111"></path>
<path d="M17 56C16.7348 56 16.4804 56.1054 16.2929 56.2929C16.1054 56.4804 16 56.7348 16 57V58C16 58.2652 16.1054 58.5196 16.2929 58.7071C16.4804 58.8946 16.7348 59 17 59C17.2652 59 17.5196 58.8946 17.7071 58.7071C17.8946 58.5196 18 58.2652 18 58V57C18 56.7348 17.8946 56.4804 17.7071 56.2929C17.5196 56.1054 17.2652 56 17 56Z" fill="#ffffff" id="id_112"></path>
</svg>